<svg width="180" height="64" viewBox="0 0 180 64" fill="none" xmlns="http://www.w3.org/2000/svg">
<path d="M78.3772 19.7047C76.3297 18.5098 74.066 17.9102 71.5995 17.9102C69.1331 17.9102 66.8693 18.5031 64.8218 19.6934C62.7743 20.8792 61.1503 22.4979 59.9655 24.5471C58.7807 26.5964 58.1838 28.835 58.1838 31.2765C58.1838 33.718 58.7807 35.9183 59.9655 37.9405C61.1503 39.9627 62.7631 41.5724 64.8038 42.7559C66.8468 43.9418 69.0948 44.5392 71.55 44.5392C74.0052 44.5392 76.3072 43.9463 78.366 42.7717C80.4247 41.5972 82.0488 39.9898 83.2313 37.9563C84.4161 35.9228 85.013 33.7 85.013 31.2765C85.013 28.853 84.4206 26.6031 83.2313 24.5584C82.0465 22.5136 80.4225 20.8995 78.375 19.7047H78.3772ZM78.1272 34.9985C77.465 36.1393 76.5527 37.041 75.395 37.6993C74.2372 38.3621 72.9623 38.689 71.5725 38.689C70.1827 38.689 68.9326 38.3576 67.7861 37.688C66.6396 37.0252 65.7341 36.1235 65.0696 34.9873C64.4074 33.851 64.0695 32.6021 64.0695 31.2472C64.0695 29.8923 64.4006 28.6231 65.0696 27.4688C65.7386 26.3213 66.6441 25.4151 67.7906 24.7455C68.9371 24.0827 70.2075 23.7446 71.5928 23.7446C72.9781 23.7446 74.2485 24.0805 75.395 24.75C76.5415 25.4196 77.4537 26.3258 78.116 27.4733C78.7849 28.6141 79.1161 29.8765 79.1161 31.2404C79.1161 32.6044 78.7849 33.8488 78.116 34.985L78.1272 34.9963V34.9985Z" fill="#664DFF"/>
<path d="M98.9987 37.1943L92.1557 17.9102H85.0581L95.8272 44.5324H102.139L112.962 17.9102H105.837L98.9942 37.1943H98.9987Z" fill="#664DFF"/>
<path d="M120.233 8.61747C119.755 8.33567 119.217 8.18237 118.613 8.18237C118.01 8.18237 117.473 8.3244 117 8.61747C116.523 8.90604 116.147 9.28027 115.881 9.74242C115.615 10.2046 115.48 10.687 115.48 11.2055C115.48 11.724 115.615 12.1997 115.881 12.6574C116.147 13.115 116.521 13.4825 117 13.7665C117.478 14.0483 118.016 14.1904 118.613 14.1904C119.21 14.1904 119.748 14.0483 120.233 13.7665C120.71 13.4892 121.086 13.115 121.345 12.6574C121.611 12.1997 121.746 11.7173 121.746 11.2055C121.746 10.6938 121.611 10.2113 121.345 9.74242C121.08 9.28027 120.706 8.90604 120.233 8.61747Z" fill="#664DFF"/>
<path d="M121.726 17.9124H115.53V44.5278H121.726V17.9124Z" fill="#664DFF"/>
<path d="M144.548 8.18689V21.0843C143.679 20.1713 142.674 19.4431 141.539 18.884C140.219 18.237 138.732 17.9169 137.081 17.9169C134.784 17.9169 132.655 18.5143 130.693 19.7046C128.734 20.895 127.173 22.5046 126.017 24.5358C124.862 26.5693 124.278 28.7966 124.278 31.2269C124.278 33.6571 124.855 35.8845 126.006 37.918C127.157 39.9514 128.716 41.5588 130.682 42.7491C132.648 43.9395 134.782 44.5369 137.086 44.5369C138.705 44.5369 140.172 44.2168 141.485 43.581C142.598 43.0377 143.663 42.2216 144.553 41.3041V44.5391H150.765L150.738 8.19365H144.553L144.548 8.18914V8.18689ZM144.548 33.7315C144.395 34.1892 144.201 34.6288 143.956 35.0413C143.309 36.1663 142.424 37.0478 141.309 37.688C140.19 38.3237 138.958 38.6439 137.617 38.6439C136.277 38.6439 135.054 38.3283 133.957 37.6993C132.865 37.068 132.002 36.1821 131.367 35.0526C130.736 33.9209 130.416 32.6494 130.416 31.2427C130.416 29.8359 130.732 28.5577 131.367 27.4169C131.997 26.2762 132.865 25.379 133.968 24.7365C135.07 24.0894 136.288 23.7626 137.613 23.7626C138.937 23.7626 140.187 24.0894 141.307 24.7365C142.426 25.3835 143.305 26.2807 143.951 27.4169C144.19 27.8408 144.393 28.2871 144.544 28.7425C144.798 29.5203 144.924 30.3567 144.924 31.2427C144.924 32.1287 144.798 32.9538 144.544 33.7315H144.551H144.548Z" fill="#664DFF"/>
<path d="M179.975 17.9011H173.779V21.0708C172.909 20.1578 171.905 19.4296 170.774 18.8705C169.454 18.2235 167.967 17.9034 166.316 17.9034C164.014 17.9034 161.89 18.5008 159.93 19.6911C157.971 20.8814 156.41 22.4911 155.254 24.5223C154.097 26.5558 153.515 28.7831 153.515 31.2134C153.515 33.6436 154.092 35.871 155.243 37.9044C156.387 39.9379 157.948 41.5453 159.919 42.7356C161.886 43.926 164.019 44.5234 166.323 44.5234C167.94 44.5234 169.409 44.2032 170.718 43.5675C171.83 43.0242 172.896 42.2081 173.785 41.2906V44.5234H180V17.9011H179.977H179.975ZM173.779 33.718C173.625 34.1757 173.432 34.6153 173.186 35.0278C172.54 36.1528 171.655 37.0342 170.54 37.6745C169.42 38.3147 168.193 38.6304 166.848 38.6304C165.503 38.6304 164.284 38.3147 163.194 37.6858C162.102 37.0545 161.239 36.1686 160.602 35.0391C159.971 33.9096 159.656 32.6359 159.656 31.2292C159.656 29.8224 159.971 28.5442 160.602 27.4034C161.232 26.2627 162.1 25.3655 163.203 24.7229C164.305 24.0759 165.517 23.749 166.848 23.749C168.179 23.749 169.422 24.0759 170.54 24.7229C171.659 25.37 172.538 26.2672 173.186 27.4034C173.425 27.8273 173.625 28.2736 173.779 28.729C174.033 29.5068 174.159 30.3432 174.159 31.2292C174.159 32.1151 174.033 32.9402 173.779 33.718Z" fill="#664DFF"/>
<path d="M23.1487 46.4306L23.0992 46.1262L17.8103 49.084C16.9476 49.5777 15.9633 49.8392 14.9745 49.8392C13.9856 49.8392 13.0081 49.5777 12.1386 49.084C10.3727 48.0786 9.32075 46.275 9.32075 44.2573V37.1154C11.2263 36.0062 12.4066 33.9637 12.4066 31.7567C12.4066 28.339 9.62484 25.5548 6.20332 25.5548C2.78181 25.5548 0 28.3367 0 31.7567C0 33.957 1.17354 35.9972 3.07463 37.1109V44.2573C3.07463 48.5294 5.30233 52.3506 9.03244 54.4811C10.8569 55.5248 12.9112 56.0794 14.9745 56.0794C17.0377 56.0794 19.101 55.5294 20.9165 54.4878L26.4126 51.4286L26.1355 51.2325C24.5385 50.103 23.446 48.3513 23.142 46.4396L23.1465 46.4351L23.1487 46.4306ZM4.73696 31.7319C4.73696 30.9338 5.38793 30.28 6.18756 30.28C6.98719 30.28 7.63815 30.9316 7.63815 31.7319C7.63815 32.5322 6.98719 33.1837 6.18756 33.1837C5.38793 33.1837 4.73696 32.5322 4.73696 31.7319Z" fill="#FE386E"/>
<path d="M6.20331 24.4885C7.18089 24.4885 8.13143 24.6778 9.02792 25.0588L9.3275 25.1828V19.3281C9.3275 17.2744 10.3546 15.5069 12.1453 14.4857C13.0193 13.9807 13.9699 13.7237 14.97 13.7237C15.9701 13.7237 16.9138 13.9784 17.7991 14.4857L22.4144 17.1098L23.7501 17.9034C23.8042 21.2737 26.568 24.0015 29.9534 24.0015C33.3389 24.0015 36.1568 21.2196 36.1568 17.7997C36.1568 14.3797 33.375 11.5978 29.9534 11.5978C28.852 11.5978 27.7708 11.8909 26.8202 12.4455L25.4845 11.7015L20.9052 9.07738L20.8512 9.05032C19.0379 8.02232 17.0062 7.479 14.97 7.479C12.9337 7.479 10.8637 8.03359 9.03468 9.07738C5.30908 11.2123 3.08813 15.0448 3.08813 19.3281V25.1828L3.38771 25.0588C4.2842 24.6778 5.23475 24.4885 6.21232 24.4885H6.20782H6.20331ZM29.9309 16.3523C30.7283 16.3523 31.3815 17.0039 31.3815 17.8042C31.3815 18.6045 30.7305 19.256 29.9309 19.256C29.1313 19.256 28.4803 18.6045 28.4803 17.8042C28.4803 17.0039 29.1313 16.3523 29.9309 16.3523Z" fill="#664DFF"/>
<path d="M43.3287 21.9613H43.3602L37.202 18.3633L37.1637 18.6834C36.9294 20.6177 35.9045 22.4054 34.339 23.5912L34.0845 23.7874L39.5648 26.9661C41.3307 27.9715 42.3894 29.7818 42.3894 31.7973C42.3894 33.8127 41.3352 35.6185 39.5648 36.6285L34.9202 39.318L34.8932 39.3405L33.643 40.0642C32.6429 39.4329 31.5032 39.097 30.3251 39.097C26.9036 39.097 24.1218 41.879 24.1218 45.2989C24.1218 45.3958 24.1218 45.4883 24.1331 45.5875L24.1556 45.9076C24.4642 49.0547 27.1424 51.5008 30.3251 51.5008C33.5079 51.5008 36.337 48.9398 36.5172 45.6528L37.6952 44.9247L42.6755 42.0323C46.4123 39.9018 48.6378 36.0761 48.6378 31.7973C48.6378 27.7799 46.6669 24.1548 43.3264 21.9658V21.9613H43.3287ZM30.3477 46.7237C29.5503 46.7237 28.8971 46.0722 28.8971 45.2718C28.8971 44.4715 29.548 43.82 30.3477 43.82C31.1473 43.82 31.7983 44.4715 31.7983 45.2718C31.7983 46.0722 31.1473 46.7237 30.3477 46.7237Z" fill="#13B8D3"/>
<path d="M78.3772 19.7047C76.3297 18.5098 74.066 17.9102 71.5995 17.9102C69.1331 17.9102 66.8693 18.5031 64.8218 19.6934C62.7743 20.8792 61.1503 22.4979 59.9655 24.5471C58.7807 26.5964 58.1838 28.835 58.1838 31.2765C58.1838 33.718 58.7807 35.9183 59.9655 37.9405C61.1503 39.9627 62.7631 41.5724 64.8038 42.7559C66.8468 43.9418 69.0948 44.5392 71.55 44.5392C74.0052 44.5392 76.3072 43.9463 78.366 42.7717C80.4247 41.5972 82.0488 39.9898 83.2313 37.9563C84.4161 35.9228 85.013 33.7 85.013 31.2765C85.013 28.853 84.4206 26.6031 83.2313 24.5584C82.0465 22.5136 80.4225 20.8995 78.375 19.7047H78.3772ZM78.1272 34.9985C77.465 36.1393 76.5527 37.041 75.395 37.6993C74.2372 38.3621 72.9623 38.689 71.5725 38.689C70.1827 38.689 68.9326 38.3576 67.7861 37.688C66.6396 37.0252 65.7341 36.1235 65.0696 34.9873C64.4074 33.851 64.0695 32.6021 64.0695 31.2472C64.0695 29.8923 64.4006 28.6231 65.0696 27.4688C65.7386 26.3213 66.6441 25.4151 67.7906 24.7455C68.9371 24.0827 70.2075 23.7446 71.5928 23.7446C72.9781 23.7446 74.2485 24.0805 75.395 24.75C76.5415 25.4196 77.4537 26.3258 78.116 27.4733C78.7849 28.6141 79.1161 29.8765 79.1161 31.2404C79.1161 32.6044 78.7849 33.8488 78.116 34.985L78.1272 34.9963V34.9985Z" fill="#664DFF"/>
<path d="M98.9987 37.1943L92.1557 17.9102H85.0581L95.8272 44.5324H102.139L112.962 17.9102H105.837L98.9942 37.1943H98.9987Z" fill="#664DFF"/>
<path d="M120.233 8.61747C119.755 8.33567 119.217 8.18237 118.613 8.18237C118.01 8.18237 117.473 8.3244 117 8.61747C116.523 8.90604 116.147 9.28027 115.881 9.74242C115.615 10.2046 115.48 10.687 115.48 11.2055C115.48 11.724 115.615 12.1997 115.881 12.6574C116.147 13.115 116.521 13.4825 117 13.7665C117.478 14.0483 118.016 14.1904 118.613 14.1904C119.21 14.1904 119.748 14.0483 120.233 13.7665C120.71 13.4892 121.086 13.115 121.345 12.6574C121.611 12.1997 121.746 11.7173 121.746 11.2055C121.746 10.6938 121.611 10.2113 121.345 9.74242C121.08 9.28027 120.706 8.90604 120.233 8.61747Z" fill="#664DFF"/>
<path d="M121.726 17.9124H115.53V44.5278H121.726V17.9124Z" fill="#664DFF"/>
<path d="M144.548 8.18689V21.0843C143.679 20.1713 142.674 19.4431 141.539 18.884C140.219 18.237 138.732 17.9169 137.081 17.9169C134.784 17.9169 132.655 18.5143 130.693 19.7046C128.734 20.895 127.173 22.5046 126.017 24.5358C124.862 26.5693 124.278 28.7966 124.278 31.2269C124.278 33.6571 124.855 35.8845 126.006 37.918C127.157 39.9514 128.716 41.5588 130.682 42.7491C132.648 43.9395 134.782 44.5369 137.086 44.5369C138.705 44.5369 140.172 44.2168 141.485 43.581C142.598 43.0377 143.663 42.2216 144.553 41.3041V44.5391H150.765L150.738 8.19365H144.553L144.548 8.18914V8.18689ZM144.548 33.7315C144.395 34.1892 144.201 34.6288 143.956 35.0413C143.309 36.1663 142.424 37.0478 141.309 37.688C140.19 38.3237 138.958 38.6439 137.617 38.6439C136.277 38.6439 135.054 38.3283 133.957 37.6993C132.865 37.068 132.002 36.1821 131.367 35.0526C130.736 33.9209 130.416 32.6494 130.416 31.2427C130.416 29.8359 130.732 28.5577 131.367 27.4169C131.997 26.2762 132.865 25.379 133.968 24.7365C135.07 24.0894 136.288 23.7626 137.613 23.7626C138.937 23.7626 140.187 24.0894 141.307 24.7365C142.426 25.3835 143.305 26.2807 143.951 27.4169C144.19 27.8408 144.393 28.2871 144.544 28.7425C144.798 29.5203 144.924 30.3567 144.924 31.2427C144.924 32.1287 144.798 32.9538 144.544 33.7315H144.551H144.548Z" fill="#664DFF"/>
<path d="M179.975 17.9011H173.779V21.0708C172.909 20.1578 171.905 19.4296 170.774 18.8705C169.454 18.2235 167.967 17.9034 166.316 17.9034C164.014 17.9034 161.89 18.5008 159.93 19.6911C157.971 20.8814 156.41 22.4911 155.254 24.5223C154.097 26.5558 153.515 28.7831 153.515 31.2134C153.515 33.6436 154.092 35.871 155.243 37.9044C156.387 39.9379 157.948 41.5453 159.919 42.7356C161.886 43.926 164.019 44.5234 166.323 44.5234C167.94 44.5234 169.409 44.2032 170.718 43.5675C171.83 43.0242 172.896 42.2081 173.785 41.2906V44.5234H180V17.9011H179.977H179.975ZM173.779 33.718C173.625 34.1757 173.432 34.6153 173.186 35.0278C172.54 36.1528 171.655 37.0342 170.54 37.6745C169.42 38.3147 168.193 38.6304 166.848 38.6304C165.503 38.6304 164.284 38.3147 163.194 37.6858C162.102 37.0545 161.239 36.1686 160.602 35.0391C159.971 33.9096 159.656 32.6359 159.656 31.2292C159.656 29.8224 159.971 28.5442 160.602 27.4034C161.232 26.2627 162.1 25.3655 163.203 24.7229C164.305 24.0759 165.517 23.749 166.848 23.749C168.179 23.749 169.422 24.0759 170.54 24.7229C171.659 25.37 172.538 26.2672 173.186 27.4034C173.425 27.8273 173.625 28.2736 173.779 28.729C174.033 29.5068 174.159 30.3432 174.159 31.2292C174.159 32.1151 174.033 32.9402 173.779 33.718Z" fill="#664DFF"/>
<path d="M23.1487 46.4306L23.0992 46.1262L17.8103 49.084C16.9476 49.5777 15.9633 49.8392 14.9745 49.8392C13.9856 49.8392 13.0081 49.5777 12.1386 49.084C10.3727 48.0786 9.32075 46.275 9.32075 44.2573V37.1154C11.2263 36.0062 12.4066 33.9637 12.4066 31.7567C12.4066 28.339 9.62484 25.5548 6.20332 25.5548C2.78181 25.5548 0 28.3367 0 31.7567C0 33.957 1.17354 35.9972 3.07463 37.1109V44.2573C3.07463 48.5294 5.30233 52.3506 9.03244 54.4811C10.8569 55.5248 12.9112 56.0794 14.9745 56.0794C17.0377 56.0794 19.101 55.5294 20.9165 54.4878L26.4126 51.4286L26.1355 51.2325C24.5385 50.103 23.446 48.3513 23.142 46.4396L23.1465 46.4351L23.1487 46.4306ZM4.73696 31.7319C4.73696 30.9338 5.38793 30.28 6.18756 30.28C6.98719 30.28 7.63815 30.9316 7.63815 31.7319C7.63815 32.5322 6.98719 33.1837 6.18756 33.1837C5.38793 33.1837 4.73696 32.5322 4.73696 31.7319Z" fill="#07B7FF"/>
<path d="M6.20331 24.4885C7.18089 24.4885 8.13143 24.6778 9.02792 25.0588L9.3275 25.1828V19.3281C9.3275 17.2744 10.3546 15.5069 12.1453 14.4857C13.0193 13.9807 13.9699 13.7237 14.97 13.7237C15.9701 13.7237 16.9138 13.9784 17.7991 14.4857L22.4144 17.1098L23.7501 17.9034C23.8042 21.2737 26.568 24.0015 29.9534 24.0015C33.3389 24.0015 36.1568 21.2196 36.1568 17.7997C36.1568 14.3797 33.375 11.5978 29.9534 11.5978C28.852 11.5978 27.7708 11.8909 26.8202 12.4455L25.4845 11.7015L20.9052 9.07738L20.8512 9.05032C19.0379 8.02232 17.0062 7.479 14.97 7.479C12.9337 7.479 10.8637 8.03359 9.03468 9.07738C5.30908 11.2123 3.08813 15.0448 3.08813 19.3281V25.1828L3.38771 25.0588C4.2842 24.6778 5.23475 24.4885 6.21232 24.4885H6.20782H6.20331ZM29.9309 16.3523C30.7283 16.3523 31.3815 17.0039 31.3815 17.8042C31.3815 18.6045 30.7305 19.256 29.9309 19.256C29.1313 19.256 28.4803 18.6045 28.4803 17.8042C28.4803 17.0039 29.1313 16.3523 29.9309 16.3523Z" fill="#664DFF"/>
<path d="M43.3287 21.9613H43.3602L37.202 18.3633L37.1637 18.6834C36.9294 20.6177 35.9045 22.4054 34.339 23.5912L34.0845 23.7874L39.5648 26.9661C41.3307 27.9715 42.3894 29.7818 42.3894 31.7973C42.3894 33.8127 41.3352 35.6185 39.5648 36.6285L34.9202 39.318L34.8932 39.3405L33.643 40.0642C32.6429 39.4329 31.5032 39.097 30.3251 39.097C26.9036 39.097 24.1218 41.879 24.1218 45.2989C24.1218 45.3958 24.1218 45.4883 24.1331 45.5875L24.1556 45.9076C24.4642 49.0547 27.1424 51.5008 30.3251 51.5008C33.5079 51.5008 36.337 48.9398 36.5172 45.6528L37.6952 44.9247L42.6755 42.0323C46.4123 39.9018 48.6378 36.0761 48.6378 31.7973C48.6378 27.7799 46.6669 24.1548 43.3264 21.9658V21.9613H43.3287ZM30.3477 46.7237C29.5503 46.7237 28.8971 46.0722 28.8971 45.2718C28.8971 44.4715 29.548 43.82 30.3477 43.82C31.1473 43.82 31.7983 44.4715 31.7983 45.2718C31.7983 46.0722 31.1473 46.7237 30.3477 46.7237Z" fill="#FF8630"/>
</svg>
